<svg id="be3781f0-ab9e-4969-9c01-675a403423e4" data-name="Layer 1" xmlns="http://www.w3.org/2000/svg" viewBox="0 0 79.56177 79.56183">
  <defs>
    <style>
      .a3bb58db-fcb9-40d7-8e6e-25d02db3d7e9 {
        fill: #7e7e7e;
      }
    </style>
  </defs>
  <g>
    <path class="a3bb58db-fcb9-40d7-8e6e-25d02db3d7e9" d="M79.78088,40A39.7809,39.7809,0,0,0,40,.21906L69.7395,66.40961A39.62252,39.62252,0,0,0,79.78088,40Z" transform="translate(-0.21912 -0.21906)"/>
    <path class="a3bb58db-fcb9-40d7-8e6e-25d02db3d7e9" d="M40,79.78088a39.67487,39.67487,0,0,0,29.73486-13.366l-59.55218-.09516A39.675,39.675,0,0,0,40,79.78088Z" transform="translate(-0.21912 -0.21906)"/>
    <path class="a3bb58db-fcb9-40d7-8e6e-25d02db3d7e9" d="M.21912,40a39.61934,39.61934,0,0,0,9.956,26.311L40,.21906A39.7809,39.7809,0,0,0,.21912,40Z" transform="translate(-0.21912 -0.21906)"/>
  </g>
</svg>
